<svg width="35" height="35" viewBox="0 0 35 35" fill="none" xmlns="http://www.w3.org/2000/svg">
<path d="M5.2027 3.78125H29.7973C30.578 3.78125 31.2188 4.42205 31.2188 5.2027V29.7973C31.2188 30.578 30.578 31.2188 29.7973 31.2188H5.2027C4.42205 31.2188 3.78125 30.578 3.78125 29.7973V5.2027C3.78125 4.42205 4.42205 3.78125 5.2027 3.78125Z" fill="#A50064" stroke="black"/>
<path d="M22.9571 16.6354C25.2148 16.6354 27.0402 14.81 27.0402 12.5523C27.0402 10.2946 25.2148 8.46924 22.9571 8.46924C20.6994 8.46924 18.874 10.2946 18.874 12.5523C18.874 14.81 20.6994 16.6354 22.9571 16.6354ZM22.9571 10.8134C23.9178 10.8134 24.696 11.5916 24.696 12.5523C24.696 13.5131 23.9178 14.2912 22.9571 14.2912C21.9964 14.2912 21.2182 13.5131 21.2182 12.5523C21.2182 11.5916 21.9964 10.8134 22.9571 10.8134Z" fill="white"/>
<path d="M22.9571 18.4033C20.6994 18.4033 18.874 20.2287 18.874 22.4864C18.874 24.7441 20.6994 26.5695 22.9571 26.5695C25.2148 26.5695 27.0402 24.7441 27.0402 22.4864C27.0402 20.2287 25.2148 18.4033 22.9571 18.4033ZM22.9571 24.2253C21.9964 24.2253 21.2182 23.4471 21.2182 22.4864C21.2182 21.5257 21.9964 20.7475 22.9571 20.7475C23.9178 20.7475 24.696 21.5257 24.696 22.4864C24.696 23.4471 23.9178 24.2253 22.9571 24.2253Z" fill="white"/>
<path d="M14.637 18.4033C13.9453 18.4033 13.3112 18.6339 12.802 19.0182C12.2929 18.6339 11.6492 18.4033 10.9671 18.4033C9.27618 18.4033 7.90234 19.7772 7.90234 21.468V26.5791H10.2465V21.4392C10.2465 21.0549 10.5539 20.7475 10.9382 20.7475C11.3225 20.7475 11.63 21.0549 11.63 21.4392V26.5695H13.9741V21.4392C13.9741 21.0549 14.2816 20.7475 14.6659 20.7475C15.0501 20.7475 15.3576 21.0549 15.3576 21.4392V26.5695H17.6921V21.4584C17.6921 19.7772 16.3279 18.4033 14.637 18.4033Z" fill="white"/>
<path d="M14.6369 8.46924C13.9452 8.46924 13.3111 8.69981 12.8019 9.0841C12.2927 8.69981 11.649 8.46924 10.9669 8.46924C9.26642 8.46924 7.89258 9.84308 7.89258 11.534V16.6354H10.2368V11.5051C10.2368 11.1208 10.5442 10.8134 10.9285 10.8134C11.3128 10.8134 11.6202 11.1208 11.6202 11.5051V16.6354H13.9644V11.5051C13.9644 11.1208 14.2718 10.8134 14.6561 10.8134C15.0404 10.8134 15.3478 11.1208 15.3478 11.5051V16.6354H17.692V11.534C17.692 9.84308 16.3278 8.46924 14.6369 8.46924Z" fill="white"/>
</svg>
