<svg width="35" height="35" viewBox="0 0 35 35" fill="none" xmlns="http://www.w3.org/2000/svg">
<path fill-rule="evenodd" clip-rule="evenodd" d="M13.1253 8.2915L9.29199 8.2915C8.73971 8.2915 8.29199 8.73922 8.29199 9.29151L8.29199 13.1248H6.29199L6.29199 9.29151C6.29199 7.63465 7.63514 6.2915 9.29199 6.2915L13.1253 6.2915V8.2915ZM26.7087 13.1248V9.2915C26.7087 8.73922 26.2609 8.2915 25.7087 8.2915L21.8753 8.2915V6.2915H25.7087C27.3655 6.2915 28.7087 7.63465 28.7087 9.2915V13.1248H26.7087ZM8.29199 25.7082V21.8748L6.29199 21.8748V25.7082C6.29199 27.365 7.63514 28.7082 9.29199 28.7082H13.1253V26.7082H9.29199C8.73971 26.7082 8.29199 26.2605 8.29199 25.7082ZM21.8753 26.7082H25.7087C26.2609 26.7082 26.7087 26.2605 26.7087 25.7082V21.8748H28.7087V25.7082C28.7087 27.365 27.3655 28.7082 25.7087 28.7082H21.8753V26.7082ZM7.29199 16.4998C6.73971 16.4998 6.29199 16.9476 6.29199 17.4998C6.29199 18.0521 6.73971 18.4998 7.29199 18.4998H27.7087C28.2609 18.4998 28.7087 18.0521 28.7087 17.4998C28.7087 16.9476 28.2609 16.4998 27.7087 16.4998H7.29199Z" fill="black"/>
</svg>
