<svg width="35" height="35" viewBox="0 0 35 35" fill="none" xmlns="http://www.w3.org/2000/svg">
<path d="M31.2188 17.5C31.2188 25.0782 25.0782 31.2188 17.5 31.2188C9.92185 31.2188 3.78125 25.0782 3.78125 17.5C3.78125 9.92185 9.92185 3.78125 17.5 3.78125C25.0782 3.78125 31.2188 9.92185 31.2188 17.5Z" fill="#ED1A35" stroke="black"/>
<path fill-rule="evenodd" clip-rule="evenodd" d="M21.0798 8.75C22.1269 8.75 22.9688 9.55894 22.9688 10.5499V24.4366C22.9688 25.4343 22.1198 26.2365 21.0798 26.2365H19.0989C18.8371 26.2365 18.6249 26.0343 18.6249 25.7849V24.4366C18.6249 24.1872 18.8371 23.985 19.0989 23.985H22.1764V11.0015H19.0989C18.8371 11.0015 18.6249 10.7993 18.6249 10.5499V9.20166C18.6249 8.95223 18.8371 8.75 19.0989 8.75H21.0798ZM15.9011 8.75C16.1629 8.75 16.3751 8.95223 16.3751 9.20166V10.5499C16.3751 10.7993 16.1629 11.0015 15.9011 11.0015H12.8236V23.9985H15.9011C16.1629 23.9985 16.3751 24.2007 16.3751 24.4501V25.7983C16.3751 26.0478 16.1629 26.25 15.9011 26.25H13.9202C12.8731 26.25 12.0312 25.4411 12.0312 24.4501V10.5566C12.0312 9.55894 12.8802 8.75674 13.9202 8.75674H15.9011V8.75Z" fill="white"/>
</svg>
