<svg width="35" height="35" viewBox="0 0 35 35" fill="none" xmlns="http://www.w3.org/2000/svg">
<path fill-rule="evenodd" clip-rule="evenodd" d="M14.3447 24.1755H21.7406V10.8247H14.3447V24.1755Z" fill="#F26A2A"/>
<path fill-rule="evenodd" clip-rule="evenodd" d="M14.8144 17.5003C14.8144 14.7915 16.0766 12.3796 18.0427 10.8249C16.6048 9.68819 14.7909 9.00977 12.8193 9.00977C8.15139 9.00977 4.36719 12.8113 4.36719 17.5003C4.36719 22.1892 8.15139 25.9908 12.8193 25.9908C14.7909 25.9908 16.6054 25.3123 18.0433 24.1757C16.0773 22.6209 14.815 20.209 14.815 17.5003" fill="#EE232E"/>
<path fill-rule="evenodd" clip-rule="evenodd" d="M31.455 22.7619V22.4323H31.369L31.2707 22.6586L31.1724 22.4323H31.0864V22.7619H31.147V22.5133L31.2398 22.7279H31.3022L31.395 22.5133V22.7625H31.4556L31.455 22.7619ZM30.9126 22.7619V22.4886H31.0227V22.4329H30.7432V22.4886H30.8526V22.7619H30.9126ZM31.719 17.5003C31.719 22.1892 27.9348 25.9908 23.2669 25.9908C21.2953 25.9908 19.4808 25.3123 18.043 24.1757C20.009 22.6209 21.2712 20.209 21.2712 17.5003C21.2712 14.7915 20.009 12.3796 18.043 10.8249C19.4808 9.68819 21.2953 9.00977 23.2669 9.00977C27.9348 9.00977 31.719 12.8113 31.719 17.5003Z" fill="#F99D2F"/>
</svg>
