<svg width="35" height="35" viewBox="0 0 35 35" fill="none" xmlns="http://www.w3.org/2000/svg">
<path fill-rule="evenodd" clip-rule="evenodd" d="M23.0562 25.6728H21.7073L22.3619 23.8286L23.0571 25.6728H23.0562ZM16.3007 22.4853L17.5774 22.4809H19.1277C19.98 22.4809 20.678 23.1712 20.678 24.0143V24.2037C20.678 25.0477 19.98 25.6907 19.1277 25.7157L18.4198 25.7371C18.9886 25.4781 19.2261 24.8253 19.1557 24.2367C19.0988 23.7643 18.8532 23.3106 18.4433 23.3016L18.1851 23.2963V27.5001C18.1851 27.5823 18.1995 27.6162 18.2428 27.6877C18.3124 27.802 18.4045 27.9163 18.5002 28.0306C18.5254 28.0601 18.5498 28.0896 18.5751 28.1199H16.3756C16.4091 28.0797 16.4407 28.0396 16.4714 27.9976C16.5382 27.9074 16.5969 27.8118 16.6411 27.7064C16.67 27.6377 16.6835 27.5876 16.6835 27.5144V22.998C16.6745 22.7622 16.4379 22.6291 16.2998 22.4844L16.3007 22.4853ZM26.8619 25.4969L24.8647 22.6649L24.6615 22.4809H26.6299L27.9634 24.6216L28.0709 24.535L28.8772 23.349C29.0758 23.0578 29.0487 22.7193 28.7661 22.48H30.6261L28.4763 25.496V27.6841L28.8546 28.1298H26.5441L26.8691 27.6903C26.8691 26.9607 26.8429 26.223 26.861 25.496L26.8619 25.4969ZM21.4391 22.4809C21.598 22.697 21.6459 22.7738 21.6639 22.9658C21.6757 23.0998 21.6666 23.1766 21.6233 23.3016L20.138 27.5617C20.0685 27.7368 19.9249 27.9306 19.7155 28.1181H21.3362C21.2161 28.0128 21.1393 27.8868 21.1104 27.7377C21.0852 27.601 21.0861 27.5492 21.1159 27.4179L21.4454 26.4061H23.3316L23.6259 27.1857C23.6566 27.2679 23.6738 27.3429 23.6819 27.4313C23.7072 27.7225 23.6133 27.9619 23.3794 28.1315H25.9211C25.6719 27.9118 25.4426 27.6823 25.3134 27.4028L23.458 22.4809H21.4382H21.4391Z" fill="#005AAA"/>
<path fill-rule="evenodd" clip-rule="evenodd" d="M4.37681 22.456H6.1519L7.64169 26.6821L8.90574 23.1812C8.92922 23.0454 8.90845 23.0008 8.85608 22.8838C8.78566 22.7418 8.71162 22.6033 8.64119 22.4613H9.96755C9.889 22.7471 9.77253 23.0606 9.6723 23.3491L7.95951 28.271C7.4918 28.179 6.97083 27.9959 6.56814 27.6181C6.26477 27.3341 6.15732 27.0108 6.00744 26.625L4.57544 22.8739C4.51856 22.7257 4.44904 22.5935 4.375 22.4551L4.37681 22.456ZM11.4655 24.4369V27.4565C11.4655 27.5788 11.4944 27.6011 11.5702 27.6994L11.9196 28.1504H10.2484C10.3432 28.0084 10.4371 27.8664 10.531 27.7244C10.6032 27.6074 10.6348 27.5672 10.6348 27.4315V23.2124L10.1653 22.4569H11.897L14.7014 26.0293V23.1821C14.7014 23.0463 14.6744 23.0017 14.6012 22.8847C14.5073 22.7427 14.4089 22.6042 14.315 22.4622H15.9845L15.6368 22.9132C15.561 23.0115 15.5321 23.0329 15.5321 23.1562V28.2951C14.9001 28.2129 14.3105 28.0593 13.7868 27.3975L11.4655 24.4369Z" fill="#ED1C24"/>
<path fill-rule="evenodd" clip-rule="evenodd" d="M16.3345 10.0921L14.9703 11.4416L14.9025 11.5077L14.1459 12.257L13.4561 12.9393L13.3893 13.0063L12.75 13.6377L12.6832 13.7047C12.4918 13.894 12.2796 14.0494 12.0548 14.1727C11.941 14.2343 11.8246 14.2879 11.7054 14.3334C11.4399 14.4353 11.1609 14.4942 10.8801 14.5121C10.7077 14.5237 10.5334 14.5192 10.3619 14.4978C9.99077 14.454 9.62781 14.337 9.29554 14.1468C9.15379 14.0655 9.00752 13.9807 8.88653 13.8619C8.88653 13.8619 8.88593 13.8619 8.88472 13.8619L6.26903 11.2746C6.22569 11.2272 6.18686 11.1763 6.15436 11.1209C6.07129 10.9816 6.02344 10.8209 6.02344 10.6485C6.02344 10.6217 6.02434 10.594 6.02705 10.5681C6.03066 10.5279 6.03698 10.4895 6.04511 10.452L6.06136 10.3904C6.09657 10.2752 6.15436 10.1662 6.23381 10.068C6.25458 10.043 6.27715 10.0189 6.30063 9.99385L6.34487 9.95098L8.99036 7.33329H8.99126L10.593 5.74625C10.9506 5.39258 11.5203 5.3765 11.895 5.7007L16.3345 10.0921Z" fill="#005AAA"/>
<path fill-rule="evenodd" clip-rule="evenodd" d="M8.8594 13.8369C8.86752 13.8449 8.87565 13.853 8.88468 13.861C9.00567 13.9798 9.15194 14.0655 9.2955 14.1468C9.62776 14.337 9.99073 14.454 10.3618 14.4978C10.5334 14.5183 10.7076 14.5228 10.8801 14.5121C11.1609 14.4951 11.4399 14.4353 11.7053 14.3343C11.8245 14.2888 11.941 14.2352 12.0548 14.1736C12.2796 14.0503 12.4918 13.8949 12.6832 13.7056L12.75 13.6395L13.3892 13.0072L13.7125 12.6866L14.4691 11.9381L14.9025 11.5086L14.9702 11.4425L17.7186 8.72475L18.8518 7.51013L18.9195 7.44404C19.2653 7.10199 19.8269 7.10199 20.1727 7.44404L20.793 8.05761L20.8129 8.07815C20.5384 8.06564 20.2612 8.16299 20.0535 8.36394L17.9534 10.4074L17.9317 10.4324L14.2768 13.9896L14.2714 13.9851L12.9251 15.2935L12.8349 15.3873C12.7292 15.4891 12.5071 15.6829 12.211 15.8214C12.0764 15.8839 11.9401 15.9294 11.8047 15.958C11.7243 15.9741 11.6421 15.9839 11.5618 15.9875H11.5004C11.2864 15.9875 11.0769 15.9401 10.8756 15.849L10.2426 15.2248L9.98441 14.9684L8.7998 13.7833L8.85398 13.8378L8.8594 13.8369Z" fill="#ED1C24"/>
<path fill-rule="evenodd" clip-rule="evenodd" d="M24.1564 12.6212L21.1127 15.6774L17.9869 18.8167C17.8876 18.9158 17.7828 19.0042 17.6727 19.0846C17.6691 19.0882 17.6646 19.0918 17.66 19.0953C17.6447 19.106 17.6302 19.1168 17.614 19.1275C17.6122 19.1293 17.6104 19.1302 17.6086 19.1319C17.1373 19.466 16.5585 19.6616 15.9355 19.6616C15.1653 19.6616 14.4665 19.3633 13.9491 18.8765L13.8778 18.814L13.3397 18.2826L11.8291 16.7875L11.2549 16.2195C11.337 16.2329 11.4201 16.2383 11.5032 16.2383H11.5727C11.6693 16.2338 11.765 16.2222 11.8598 16.2035C12.0142 16.1722 12.1704 16.1195 12.3239 16.0481C12.6544 15.8935 12.9009 15.6792 13.0173 15.5658C13.0634 15.5211 13.0977 15.4836 13.1121 15.4675L14.2742 14.3387L14.2787 14.344L18.2731 10.4563L18.2948 10.4313L20.2351 8.54241C20.496 8.28967 20.9042 8.25662 21.2012 8.45846L21.6608 8.91305H21.6617L24.1564 11.3807C24.1781 11.403 24.1997 11.4254 24.2187 11.4486C24.5013 11.7933 24.4796 12.3024 24.1564 12.6212Z" fill="#ED1C24"/>
<path d="M15.9226 10.4982L15.6662 10.751L15.2165 10.3035C15.1461 10.233 15.147 10.1196 15.2165 10.0508C15.2879 9.98112 15.4016 9.98112 15.473 10.0508L15.9217 10.4973L15.9226 10.4982Z" fill="#009EDB"/>
<path d="M15.1656 11.2472L14.9092 11.4991L13.4971 10.0916C12.9725 9.56999 12.2068 9.38601 11.498 9.61285C11.4032 9.64322 11.3012 9.59231 11.2705 9.49854C11.2398 9.40387 11.2922 9.30295 11.387 9.27258C12.2258 9.00376 13.1332 9.22078 13.7535 9.8397L15.1647 11.2472H15.1656Z" fill="#009EDB"/>
<path d="M13.6512 12.7449L13.3948 12.9985L11.9763 11.5847C11.9059 11.5151 11.9068 11.4017 11.9763 11.3311C12.0476 11.2614 12.1623 11.2623 12.2327 11.332L13.6503 12.7449H13.6512Z" fill="#009EDB"/>
<path d="M14.4087 11.9966L14.1523 12.2494L12.7375 10.8383C12.3925 10.4935 11.8273 10.4917 11.4797 10.8329C11.1321 11.175 11.1294 11.7331 11.4752 12.077L12.3871 12.9871C12.4576 13.0567 12.4576 13.1701 12.3871 13.2407C12.3167 13.3104 12.202 13.3095 12.1307 13.2398L11.2179 12.3297C10.7321 11.8448 10.7348 11.0597 11.2251 10.5784C11.7154 10.0979 12.5099 10.1014 12.9948 10.5855L14.4087 11.9957V11.9966Z" fill="#009EDB"/>
<path d="M12.0618 14.1677C12.0618 14.1677 12.0563 14.1704 12.0536 14.1722C11.9426 14.232 11.8297 14.2847 11.7132 14.3294L10.4582 13.0772C9.67269 12.294 9.56073 11.0669 10.191 10.1586C10.2478 10.0773 10.3607 10.0568 10.4429 10.1121C10.5259 10.1684 10.5458 10.28 10.4898 10.3613C9.95801 11.1276 10.0528 12.1627 10.7155 12.8236L12.0627 14.1668L12.0618 14.1677Z" fill="#009EDB"/>
<path d="M14.5142 9.34949C14.4438 9.41826 14.3282 9.41648 14.2569 9.34681C13.0795 8.17328 11.1563 8.16613 9.96994 9.32984C8.78443 10.4945 8.7763 12.3968 9.95368 13.5703L10.8755 14.4902C10.8819 14.4965 10.8882 14.5036 10.8918 14.5107C10.8873 14.5107 10.8828 14.5107 10.8783 14.5107C10.7103 14.5224 10.5406 14.5179 10.3744 14.4982L9.69726 13.8222C8.37903 12.5093 8.38716 10.3792 9.71532 9.07531C11.0435 7.77138 13.196 7.78031 14.5142 9.09407L14.5169 9.09674C14.5874 9.16641 14.5856 9.27894 14.5142 9.34949Z" fill="#009EDB"/>
</svg>
