<svg width="35" height="35" viewBox="0 0 35 35" fill="none" xmlns="http://www.w3.org/2000/svg">
<g clip-path="url(#clip0_1_17469)">
<path d="M19.6175 8.54938C19.4156 8.349 19.1592 8.24685 18.8462 8.24685C18.3879 8.24685 18.0528 8.46098 17.8428 8.88925C17.3926 8.37454 16.7789 8.11719 15.9996 8.11719C15.0648 8.11719 14.2774 8.46884 13.6415 9.17017C13.0035 9.87151 12.6865 10.728 12.6865 11.7378C12.6865 12.7476 13.0055 13.6041 13.6415 14.3074C14.2794 15.0088 15.0648 15.3604 15.9996 15.3604C16.7789 15.3604 17.3926 15.105 17.8428 14.5903C18.0528 15.0186 18.3879 15.2327 18.8462 15.2327C19.1572 15.2327 19.4156 15.1325 19.6175 14.9321C19.8194 14.7318 19.9203 14.4862 19.9203 14.1935V9.28608C19.9203 8.99533 19.8194 8.74977 19.6175 8.54742M17.3825 12.9597C17.1201 13.2878 16.7607 13.4509 16.3024 13.4509C15.8441 13.4509 15.4847 13.2878 15.2223 12.9597C14.9618 12.6317 14.8306 12.227 14.8306 11.7417C14.8306 11.2565 14.9618 10.8538 15.2223 10.5257C15.4827 10.1976 15.8421 10.0346 16.3024 10.0346C16.7627 10.0346 17.1201 10.1996 17.3825 10.5257C17.643 10.8538 17.7742 11.2604 17.7742 11.7417C17.7742 12.2231 17.643 12.6297 17.3825 12.9597Z" fill="#0069F9"/>
<path d="M22.3491 14.9343C22.1472 15.1367 21.8908 15.2349 21.5779 15.2349C21.265 15.2349 21.0086 15.1347 20.8087 14.9343C20.6068 14.734 20.5059 14.4864 20.5059 14.1957V5.41424C20.5059 5.12349 20.6068 4.87792 20.8087 4.67557C21.0106 4.47323 21.267 4.375 21.5779 4.375C21.8888 4.375 22.1472 4.47519 22.3491 4.67557C22.551 4.87595 22.652 5.12349 22.652 5.41424V14.1957C22.652 14.4864 22.551 14.732 22.3491 14.9343Z" fill="#0069F9"/>
<path d="M29.4564 9.17457C28.768 8.47323 27.8938 8.12158 26.8298 8.12158C25.7658 8.12158 24.8977 8.4693 24.2234 9.16278C23.5491 9.85626 23.2119 10.7167 23.2119 11.7442C23.2119 12.7716 23.5491 13.6321 24.2234 14.3256C24.8977 15.019 25.7658 15.3668 26.8298 15.3668C27.8938 15.3668 28.77 15.0151 29.4564 14.3138C30.1166 13.6282 30.4457 12.7716 30.4457 11.7442C30.4457 10.7167 30.1166 9.86019 29.4564 9.17653M27.9099 12.9602C27.6475 13.2883 27.2881 13.4513 26.8298 13.4513C26.3715 13.4513 26.0122 13.2883 25.7497 12.9602C25.4872 12.6321 25.358 12.2274 25.358 11.7422C25.358 11.257 25.4893 10.8542 25.7497 10.5262C26.0101 10.1981 26.3695 10.035 26.8298 10.035C27.2901 10.035 27.6475 10.2001 27.9099 10.5262C28.1704 10.8542 28.3016 11.2609 28.3016 11.7422C28.3016 12.2235 28.1724 12.6302 27.9099 12.9602Z" fill="#0069F9"/>
<path d="M11.4997 8.36303C12.2568 7.41219 12.6364 6.76979 12.6364 6.43975C12.6364 5.67555 12.1438 5.29443 11.1545 5.29443H5.9477C5.53786 5.29443 5.2229 5.38873 4.99679 5.57733C4.77269 5.76592 4.66164 6.00952 4.66164 6.31009C4.66164 6.61067 4.7747 6.85623 4.99679 7.04483C5.22089 7.23342 5.53786 7.32772 5.9477 7.32772H9.5232L4.94429 13.0858C4.64549 13.4629 4.49609 13.7969 4.49609 14.0877C4.49609 14.9245 5.06543 15.343 6.20208 15.343H11.5744C12.4325 15.343 12.8625 14.9933 12.8625 14.292C12.8625 13.5906 12.4345 13.2409 11.5744 13.2409H7.62542L11.5017 8.36499L11.4997 8.36303Z" fill="#0069F9"/>
<path d="M9.26657 20.4512H7.8291V23.3587H9.26657C9.69862 23.3587 10.0499 23.2212 10.3164 22.9481C10.5849 22.675 10.7182 22.3273 10.7182 21.9069C10.7182 21.4865 10.5849 21.1388 10.3164 20.8657C10.0499 20.5907 9.69862 20.4531 9.26657 20.4531" fill="#32B34A"/>
<path d="M16.4383 23.1855C15.982 23.1855 15.6247 23.3486 15.3643 23.6747C15.1058 24.0008 14.9746 24.4036 14.9746 24.8849C14.9746 25.3662 15.1038 25.7689 15.3643 26.095C15.6247 26.4211 15.982 26.5842 16.4383 26.5842C16.8946 26.5842 17.2519 26.4211 17.5124 26.095C17.7728 25.7689 17.902 25.3662 17.902 24.8849C17.902 24.4036 17.7728 24.0008 17.5124 23.6747C17.2519 23.3486 16.8946 23.1855 16.4383 23.1855Z" fill="#32B34A"/>
<path d="M26.5911 16.2959H5.75388C5.05735 16.2959 4.49609 16.844 4.49609 17.5198V29.4013C4.49609 30.0771 5.05937 30.6252 5.75388 30.6252H22.202C22.0284 30.4641 21.9416 30.2774 21.9416 30.0633C21.9416 29.8865 21.9819 29.7038 22.0627 29.5113L22.838 27.8316L20.6919 22.6197C20.6293 22.4704 20.597 22.3093 20.597 22.1345C20.597 21.9066 20.6959 21.7141 20.8937 21.5569C21.0916 21.3997 21.2975 21.3212 21.5136 21.3212C21.99 21.3212 22.313 21.5432 22.4847 21.9911L23.8192 25.5488L25.2506 21.9911C25.4303 21.5451 25.7533 21.3212 26.2217 21.3212C26.4377 21.3212 26.6436 21.3997 26.8415 21.5569C27.0393 21.716 27.1383 21.9086 27.1383 22.1345C27.1383 22.3093 27.106 22.4704 27.0434 22.6197L23.8656 30.1281C23.7788 30.3383 23.6738 30.5034 23.5527 30.6252H26.5851C27.2796 30.6252 27.8429 30.0771 27.8429 29.4013V17.5198C27.8429 16.844 27.2796 16.2959 26.5851 16.2959M11.8732 24.2896C11.2151 24.875 10.3893 25.1677 9.39399 25.1677H7.82933V27.4171C7.82933 27.755 7.7304 28.0182 7.53255 28.2049C7.33469 28.3935 7.08233 28.4858 6.77343 28.4858C6.46454 28.4858 6.21016 28.3915 6.0123 28.2049C5.81445 28.0182 5.71754 27.755 5.71754 27.4171V19.7122C5.71754 18.9991 6.08296 18.6415 6.81583 18.6415H9.31121C10.353 18.6415 11.2151 18.946 11.8974 19.5531C12.5778 20.1621 12.919 20.9499 12.919 21.9184C12.919 22.8967 12.5718 23.6865 11.8752 24.2915M20.0357 27.3228C20.0357 27.6116 19.9348 27.8571 19.7349 28.0575C19.533 28.2579 19.2786 28.3581 18.9677 28.3581C18.5114 28.3581 18.1783 28.1459 17.9683 27.7196C17.5222 28.2304 16.9104 28.4858 16.1352 28.4858C15.2044 28.4858 14.4231 28.1381 13.7892 27.4387C13.1552 26.7413 12.8383 25.8887 12.8383 24.8828C12.8383 23.877 13.1552 23.0264 13.7892 22.329C14.4231 21.6316 15.2065 21.2819 16.1352 21.2819C16.9104 21.2819 17.5201 21.5373 17.9683 22.048C18.1783 21.6217 18.5114 21.4096 18.9677 21.4096C19.2766 21.4096 19.533 21.5098 19.7349 21.7101C19.9348 21.9105 20.0357 22.1561 20.0357 22.4449V27.3248V27.3228Z" fill="#00BF00"/>
</g>
<defs>
<clipPath id="clip0_1_17469">
<rect width="35" height="35" fill="white"/>
</clipPath>
</defs>
</svg>
